<svg version="1" xmlns="http://www.w3.org/2000/svg" width="446.667" height="446.667" viewBox="0 0 335.000000 335.000000"><path d="M162.5 12.8c-2.2.1-4.7.5-5.5.9-.8.3-2.3.5-3.2.4-1-.1-1.8.3-1.8.8 0 .6-.3 1-.7.9-.5-.1-1.8.3-2.9 1-1.2.6-2.4.8-2.8.5-.3-.3-.6-.1-.6.6s-.4.9-1 .6c-.5-.3-1 0-1 .8s-.6 1.5-1.2 1.4c-3.3-.1-4.9.4-4.3 1.3.3.5-.1 1-.9 1-.9 0-1.6.4-1.6 1 0 .5-.7 1-1.5 1s-1.4.5-1.2 1.2c.1.7-.5 1.2-1.3 1.3-.8 0-1.4.6-1.3 1.3.2.7-.6 1.2-1.7 1.2s-2 .5-2 1.1c0 .5-.4.8-.9.5-.5-.4-1.1-.1-1.3.4-.2.6-1.2 1.3-2.3 1.4-1.1.2-1.9.9-1.7 1.5.1.6-.5 1.1-1.5 1.1-.9 0-1.4.3-1 .6.3.3-1 2.1-2.9 4-2.1 2-3.2 3.9-2.8 4.5.4.8.3.9-.4.5-1-.6-4.4 4.2-4.2 5.9 0 .3-.6 1.3-1.5 2.2-.9.8-1.4 2.2-1.1 3 .3.8.1 1.1-.4.8-.6-.3-1 .1-1 .9 0 .9-.4 1.6-1 1.6-.5 0-1 .9-1 2.1 0 1.3-.4 1.8-1.2 1.3-.9-.5-.9-.2.1.9 1.1 1.3 1.1 1.7.1 1.7-.8 0-1 .3-.7.7.4.3.1 1.3-.6 2.1-.8 1-.8 1.3-.1.9.7-.4 1.5 0 1.8.8.3.9-.1 1.8-.9 2.2-1.2.4-1.3.9-.5 1.8.6.7.7 1.6.3 1.8-.9.6-.8 31.8.1 35.4 1.9 7.3 2.8 15.6 1.8 14.9-1.6-.9-7.2 2.4-8.5 5.1-2.4 4.8-1.3 13.7 2.8 22.7 4.1 8.8 6.2 11.3 11.8 13.8 3.6 1.7 5.2 4 6.1 9.2.2 1.4 1 3.5 1.7 4.8.7 1.2 1.2 2.5 1.2 2.8 0 .3.1.9.3 1.5 2.4 7.8 2.7 55.2.4 59.4-2.4 4.5-4.7 6.2-21.5 16-4.9 2.9-9.7 5.7-10.5 6.2-2.9 1.8-5.5 2.8-9.7 3.9-2.3.6-6.4 2.6-9.2 4.4-2.7 1.9-8.2 4.9-12.1 6.7-4 1.8-9.3 4.8-11.8 6.6-2.6 1.8-8.1 4.4-12.2 5.8-4.2 1.4-12.3 5.4-18 9C6.2 308.1 1.2 311 .8 311c-.5 0-.8 5.4-.8 12v12h335v-17.8l-3.4-1.2c-3.6-1.1-15.9-8.2-18.9-10.8-1.7-1.5-7-3.8-10.9-4.7-3-.7-8.3-3.7-15.3-8.9-3.8-2.9-8.1-5.7-9.5-6.4-5.5-2.7-13.7-7.6-17.1-10.3-3.3-2.6-6.2-4.3-22.7-13.1-5.7-3-10.6-7.3-13.8-12.3-1.7-2.6-1.9-5.1-2-27-.1-13.2.1-24.5.5-25 1.6-2.6 6.1-15.9 6.7-20 1.4-8.2 2.4-10.3 5.9-11.9 5.3-2.5 6.1-4.3 11.2-24.1.3-1.1.7-4.6 1-7.8.5-5.6.4-5.9-2.7-8.5-1.8-1.5-3.8-2.7-4.4-2.7-.6 0-.9-.9-.8-2 .8-4.4.5-14.7-.4-15.3-.6-.4-.9-2.1-.7-3.7.1-1.7.5-5.4.7-8.4.3-2.9.8-5.6 1.1-5.9.2-.3 0-1.1-.6-1.9-.6-.7-.7-1.3-.2-1.3.5 0 .8-1.7.7-3.8-.2-2-.5-5.8-.7-8.4-.2-2.6-.8-5.3-1.3-6-.5-.7-.9-2.2-.9-3.3 0-1.1-.2-2.2-.6-2.5-.4-.3-.9-1.4-1.1-2.5-.1-1.1-1.1-2.9-2-3.9-2.1-2.3-2.3-3.6-.6-3.6.6 0 .1-.8-1-1.9-1.2-1-2.2-2.5-2.2-3.3 0-.8-1.1-2.1-2.5-2.8-1.3-.7-2.2-1.7-2-2.1.3-.4-.4-1-1.5-1.4-1.1-.3-2-1.3-2-2.1s-.4-1.3-.9-1c-.5.3-1.1-.1-1.5-.9-.3-.8-1.1-1.5-1.8-1.5-.8 0-2-.9-2.8-1.9-.7-1.1-1.7-1.8-2.1-1.5-.4.2-1.4-.2-2.2-1-.8-.8-1.7-1.2-2.1-.9-.3.4-.6.1-.6-.5 0-.7-.3-1.1-.7-1-1.7.3-4.2-1.5-3.6-2.6.3-.6.3-.8-.2-.4-.4.4-2 .1-3.5-.7-1.5-.8-3-1.1-3.4-.8-.3.4-.6.1-.6-.6s-.6-1.1-1.4-.8c-1.6.7-4-1.6-2.9-2.7.4-.4-.4-.3-1.9.3-2.1.8-2.9.6-4.2-.8-.9-1-2.2-1.8-2.9-1.8-.6-.1-2.8-.4-4.7-.7-1.9-.3-4.4-.7-5.5-.8-1.1-.2-2.3-.8-2.7-1.3-.5-.6-.8-.4-.8.5s-.3 1.1-.8.5c-.4-.6-2.5-.9-4.7-.7z"/><path d="M185.5 17c.3.5.8 1 1.1 1 .2 0 .4-.5.4-1 0-.6-.5-1-1.1-1-.5 0-.7.4-.4 1z"/></svg>